<svg xmlns="http://www.w3.org/2000/svg" version="1.1" xmlns:xlink="http://www.w3.org/1999/xlink" width="1000" height="1000"><g clip-path="url(#SvgjsClipPath1080)"><rect width="1000" height="1000" fill="#ffffff"></rect><g transform="matrix(5,0,0,5,0,0)"><svg xmlns="http://www.w3.org/2000/svg" version="1.1" xmlns:xlink="http://www.w3.org/1999/xlink" width="200" height="200"><svg xmlns="http://www.w3.org/2000/svg" version="1.1" xmlns:xlink="http://www.w3.org/1999/xlink" viewBox="0 0 200 200"><rect width="200" height="200" fill="url('#gradient')"></rect><defs><linearGradient id="gradient" gradientTransform="rotate(68 0.5 0.5)"><stop offset="0%" stop-color="#dff5f3"></stop><stop offset="100%" stop-color="#76caa1"></stop></linearGradient><clipPath id="SvgjsClipPath1080"><rect width="1000" height="1000" x="0" y="0" rx="500" ry="500"></rect></clipPath></defs><g><g fill="#263032" transform="matrix(3.866582756450598,0,0,3.866582756450598,5.8481218242435205,127.10646316193424)" stroke="#f4f0dd" stroke-width="0.2"><path d="M10.03-8.30L10.03-5.66L4.50-5.66L4.50 0L1.07 0L1.07-14.22L10.59-14.22L10.59-11.57L4.50-11.57L4.50-8.30L10.03-8.30ZM19.74-14.22L23.16-14.22L23.16-4.91Q23.16-3.33 22.49-2.17Q21.82-1.02 20.56-0.41Q19.30 0.20 17.58 0.20L17.58 0.20Q14.98 0.20 13.49-1.15Q11.99-2.50 11.96-4.84L11.96-4.84L11.96-14.22L15.41-14.22L15.41-4.78Q15.47-2.44 17.58-2.44L17.58-2.44Q18.64-2.44 19.19-3.03Q19.74-3.61 19.74-4.93L19.74-4.93L19.74-14.22ZM29.98 0L25.30 0L25.30-14.22L29.88-14.22Q31.77-14.22 33.27-13.36Q34.78-12.51 35.62-10.95Q36.46-9.39 36.47-7.46L36.47-7.46L36.47-6.81Q36.47-4.85 35.65-3.31Q34.82-1.76 33.33-0.88Q31.83-0.01 29.98 0L29.98 0ZM29.88-11.57L28.73-11.57L28.73-2.64L29.92-2.64Q31.40-2.64 32.19-3.69Q32.98-4.74 32.98-6.81L32.98-6.81L32.98-7.42Q32.98-9.48 32.19-10.53Q31.40-11.57 29.88-11.57L29.88-11.57ZM41.66-14.22L41.66-2.64L47.63-2.64L47.63 0L38.23 0L38.23-14.22L41.66-14.22Z"></path></g></g></svg></svg></g></g></svg>